<?xml version="1.0" encoding="utf-8"?>
<svg xmlns="http://www.w3.org/2000/svg" viewBox="70.122 181.707 373.17 123.781">
  <defs>
    <g/>
  </defs>
  <g fill="#ffffff" fill-opacity="1" transform="matrix(1, 0, 0, 1, 67.190765, 65.129417)">
    <g transform="translate(-2.733093, 239.624984)">
      <g>
        <path d="M 5.796875 0 L 33.515625 -120.484375 L 70.6875 -120.484375 C 76.820312 -120.484375 82.316406 -119.644531 87.171875 -117.96875 C 92.035156 -116.289062 96.046875 -113.84375 99.203125 -110.625 C 102.359375 -107.414062 104.472656 -103.476562 105.546875 -98.8125 C 106.628906 -94.15625 106.492188 -88.875 105.140625 -82.96875 C 103.546875 -75.800781 100.390625 -69.757812 95.671875 -64.84375 C 90.953125 -59.925781 85.140625 -56.21875 78.234375 -53.71875 C 71.328125 -51.21875 63.753906 -49.96875 55.515625 -49.96875 L 38.796875 -49.96875 L 27.203125 0 Z M 43.3125 -70.171875 L 59 -70.171875 C 66.445312 -70.171875 72.257812 -71.601562 76.4375 -74.46875 C 80.613281 -77.34375 83.300781 -81.453125 84.5 -86.796875 C 85.582031 -91.171875 84.769531 -94.507812 82.0625 -96.8125 C 79.363281 -99.113281 74.347656 -100.265625 67.015625 -100.265625 L 50.3125 -100.265625 Z M 43.3125 -70.171875 " style=""/>
      </g>
    </g>
  </g>
  <g fill="#ffffff" fill-opacity="1" transform="matrix(1, 0, 0, 1, 67.190765, 65.129417)">
    <g transform="translate(109.168809, 239.624984)">
      <g>
        <path d="M -8.875 0 L 67.015625 -120.484375 L 83.3125 -120.484375 L 103.515625 0 L 80.484375 0 L 77.171875 -26.171875 L 30.359375 -26.171875 L 15 0 Z M 42.125 -44.671875 L 74.1875 -44.671875 L 68.46875 -88.671875 Z M 42.125 -44.671875 " style=""/>
      </g>
    </g>
  </g>
  <g fill="#ffffff" fill-opacity="1" transform="matrix(1, 0, 0, 1, 67.190765, 65.129417)">
    <g transform="translate(236.077208, 239.624984)">
      <g>
        <path d="M 38.96875 0 L 49.96875 -46.984375 L 17.828125 -120.484375 L 42.96875 -120.484375 L 64.625 -66.34375 L 111.609375 -120.484375 L 137.453125 -120.484375 L 71.625 -46.984375 L 60.625 0 Z M 38.96875 0 " style=""/>
      </g>
    </g>
  </g>
</svg>